<svg width="34" height="34" viewBox="0 0 34 34" fill="none" xmlns="http://www.w3.org/2000/svg">
<g clip-path="url(#clip0_24_28)">
<path d="M15.9457 17.2461C16.7077 15.7842 17.3485 14.4439 18.1054 13.1303C19.377 10.9241 20.8404 8.75354 22.9799 6.78162C23.873 5.95727 24.9327 5.17147 26.1185 4.48649C26.7896 4.09804 27.824 3.83709 28.7676 3.72145C30.0493 3.56429 30.8315 3.98832 31.0737 4.75633C31.4471 5.93948 31.1342 7.10187 30.5993 8.23461C29.0199 11.5646 26.179 14.5359 22.9193 17.3825C22.339 17.8896 21.7234 18.3878 21.0674 18.8622C20.5578 19.2299 20.694 19.4286 21.3803 19.6362C25.1497 20.7896 28.2933 22.3642 30.5893 24.4844C32.2797 26.0471 33.5714 27.7077 33.9398 29.5728C34.1316 30.5277 33.854 31.4439 33.1224 32.295C32.1939 33.3773 30.6145 33.9259 28.586 33.9852C24.862 34.0949 21.5064 33.4277 18.499 32.1675C17.8733 31.9065 17.4242 31.865 16.7279 32.0904C14.3714 32.8524 11.9392 33.5256 9.26987 33.8428C7.38267 34.0652 5.53078 34.0445 3.71926 33.6382C1.3981 33.1193 0.065954 32.0103 0.000355888 30.5543C-0.0904723 28.3867 1.32241 26.5097 3.33072 24.7602C5.64179 22.7497 8.59371 21.1544 12.3025 20.0543C13.3874 19.734 13.3925 19.6836 12.7163 19.0638C9.9965 16.5582 8.00837 13.8835 7.2111 10.9301C6.28264 7.49626 7.01935 4.19293 9.48685 1.03193C9.66851 0.800636 9.91072 0.58417 10.1681 0.382531C10.8291 -0.130464 11.6365 -0.145291 12.0452 0.444802C12.6557 1.3166 13.236 2.22991 13.4379 3.15508C14.0787 6.03437 14.5581 8.92553 15.0526 11.8137C15.3352 13.4713 15.5168 15.1348 15.7489 16.7924C15.7641 16.9022 15.8398 17.0089 15.9356 17.2432L15.9457 17.2461ZM15.3301 28.6536C15.2494 28.707 15.1687 28.7603 15.0829 28.8137C15.8701 29.4513 16.6471 30.0918 17.4595 30.7174C17.5352 30.7767 17.8683 30.7975 17.9843 30.753C18.8926 30.3913 19.811 30.0324 20.6537 29.6203C21.2541 29.3267 21.1633 29.0628 20.4266 28.8997C18.7715 28.529 17.0559 28.5202 15.3301 28.6566V28.6536Z" fill="#AE606E"/>
</g>
<defs>
<clipPath id="clip0_24_28">
<rect width="34" height="34" fill="white"/>
</clipPath>
</defs>
</svg>
