<svg width="100" height="100" viewBox="0 0 100 100" fill="none" xmlns="http://www.w3.org/2000/svg">
<circle cx="50" cy="50" r="49" fill="white" stroke="#AE606E" stroke-width="2"/>
<path d="M63.4165 36.5825H36.5831C35.0581 36.5825 33.5956 37.1883 32.5173 38.2667C31.4389 39.345 30.8331 40.8075 30.8331 42.3325V57.6659C30.8331 59.1908 31.4389 60.6534 32.5173 61.7317C33.5956 62.8101 35.0581 63.4159 36.5831 63.4159H63.4165C64.9415 63.4159 66.404 62.8101 67.4823 61.7317C68.5607 60.6534 69.1665 59.1908 69.1665 57.6659V42.3325C69.1665 40.8075 68.5607 39.345 67.4823 38.2667C66.404 37.1883 64.9415 36.5825 63.4165 36.5825ZM34.6665 42.3325C34.6665 41.8242 34.8684 41.3367 35.2278 40.9772C35.5873 40.6178 36.0748 40.4159 36.5831 40.4159H63.4165C63.9248 40.4159 64.4123 40.6178 64.7718 40.9772C65.1312 41.3367 65.3331 41.8242 65.3331 42.3325V44.2492H34.6665V42.3325ZM65.3331 57.6659C65.3331 58.1742 65.1312 58.6617 64.7718 59.0211C64.4123 59.3806 63.9248 59.5825 63.4165 59.5825H36.5831C36.0748 59.5825 35.5873 59.3806 35.2278 59.0211C34.8684 58.6617 34.6665 58.1742 34.6665 57.6659V48.0825H65.3331V57.6659Z" fill="#AE606E"/>
<path d="M40.4167 55.7508H48.0833C48.5917 55.7508 49.0792 55.5489 49.4386 55.1894C49.7981 54.83 50 54.3425 50 53.8341C50 53.3258 49.7981 52.8383 49.4386 52.4789C49.0792 52.1194 48.5917 51.9175 48.0833 51.9175H40.4167C39.9083 51.9175 39.4208 52.1194 39.0614 52.4789C38.7019 52.8383 38.5 53.3258 38.5 53.8341C38.5 54.3425 38.7019 54.83 39.0614 55.1894C39.4208 55.5489 39.9083 55.7508 40.4167 55.7508Z" fill="#AE606E"/>
<path d="M55.7498 55.7508H59.5831C60.0915 55.7508 60.579 55.5489 60.9384 55.1894C61.2979 54.83 61.4998 54.3425 61.4998 53.8341C61.4998 53.3258 61.2979 52.8383 60.9384 52.4789C60.579 52.1194 60.0915 51.9175 59.5831 51.9175H55.7498C55.2415 51.9175 54.754 52.1194 54.3945 52.4789C54.0351 52.8383 53.8331 53.3258 53.8331 53.8341C53.8331 54.3425 54.0351 54.83 54.3945 55.1894C54.754 55.5489 55.2415 55.7508 55.7498 55.7508Z" fill="#AE606E"/>
</svg>
