<svg width="100" height="100" viewBox="0 0 100 100" fill="none" xmlns="http://www.w3.org/2000/svg">
<circle cx="50" cy="50" r="49" fill="white" stroke="#AE606E" stroke-width="2"/>
<path d="M50.3333 48.25C51.9212 48.25 53.2083 46.9628 53.2083 45.375C53.2083 43.7872 51.9212 42.5 50.3333 42.5C48.7455 42.5 47.4583 43.7872 47.4583 45.375C47.4583 46.9628 48.7455 48.25 50.3333 48.25Z" fill="#AE606E"/>
<path d="M50.3333 31C46.2931 30.9998 42.4161 32.5942 39.5449 35.4367C36.6737 38.2792 35.0404 42.14 35 46.18C35 56.6833 48.5125 68.375 49.0875 68.8733C49.4347 69.1703 49.8765 69.3335 50.3333 69.3335C50.7902 69.3335 51.232 69.1703 51.5792 68.8733C52.25 68.375 65.6667 56.6833 65.6667 46.18C65.6263 42.14 63.993 38.2792 61.1218 35.4367C58.2506 32.5942 54.3736 30.9998 50.3333 31ZM50.3333 52.0833C49.0065 52.0833 47.7096 51.6899 46.6064 50.9528C45.5032 50.2157 44.6434 49.168 44.1356 47.9422C43.6279 46.7164 43.4951 45.3676 43.7539 44.0663C44.0127 42.765 44.6516 41.5697 45.5898 40.6315C46.528 39.6933 47.7233 39.0544 49.0246 38.7956C50.3259 38.5367 51.6747 38.6696 52.9005 39.1773C54.1263 39.685 55.174 40.5449 55.9111 41.648C56.6482 42.7512 57.0417 44.0482 57.0417 45.375C57.0417 47.1542 56.3349 48.8604 55.0768 50.1185C53.8188 51.3766 52.1125 52.0833 50.3333 52.0833Z" fill="#AE606E"/>
</svg>
