<svg width="100" height="100" viewBox="0 0 100 100" fill="none" xmlns="http://www.w3.org/2000/svg">
<circle cx="50" cy="50" r="49" fill="white" stroke="#AE606E" stroke-width="2"/>
<g clip-path="url(#clip0_67_81)">
<path d="M48.9457 53.2461C49.7077 51.7842 50.3485 50.4439 51.1054 49.1302C52.377 46.9241 53.8404 44.7535 55.9799 42.7816C56.873 41.9572 57.9327 41.1714 59.1185 40.4864C59.7896 40.098 60.824 39.837 61.7676 39.7214C63.0493 39.5642 63.8315 39.9883 64.0737 40.7563C64.4471 41.9394 64.1342 43.1018 63.5993 44.2346C62.0199 47.5646 59.179 50.5358 55.9193 53.3825C55.339 53.8895 54.7234 54.3877 54.0674 54.8621C53.5578 55.2298 53.694 55.4285 54.3803 55.6361C58.1497 56.7896 61.2933 58.3642 63.5893 60.4843C65.2797 62.047 66.5714 63.7076 66.9398 65.5728C67.1316 66.5276 66.854 67.4439 66.1224 68.2949C65.1939 69.3772 63.6145 69.9258 61.586 69.9851C57.862 70.0948 54.5064 69.4276 51.499 68.1674C50.8733 67.9065 50.4242 67.8649 49.7279 68.0903C47.3714 68.8524 44.9392 69.5255 42.2699 69.8428C40.3827 70.0652 38.5308 70.0444 36.7193 69.6382C34.3981 69.1193 33.066 68.0102 33.0004 66.5543C32.9095 64.3867 34.3224 62.5096 36.3307 60.7601C38.6418 58.7496 41.5937 57.1543 45.3025 56.0542C46.3874 55.7339 46.3925 55.6835 45.7163 55.0638C42.9965 52.5581 41.0084 49.8834 40.2111 46.93C39.2826 43.4962 40.0194 40.1929 42.4869 37.0319C42.6685 36.8006 42.9107 36.5841 43.1681 36.3825C43.8291 35.8695 44.6365 35.8546 45.0452 36.4447C45.6557 37.3165 46.236 38.2298 46.4379 39.155C47.0787 42.0343 47.5581 44.9255 48.0526 47.8137C48.3352 49.4713 48.5168 51.1348 48.7489 52.7924C48.7641 52.9021 48.8398 53.0088 48.9356 53.2431L48.9457 53.2461ZM48.3301 64.6535C48.2494 64.7069 48.1687 64.7603 48.0829 64.8137C48.8701 65.4512 49.6471 66.0917 50.4595 66.7174C50.5352 66.7767 50.8683 66.7974 50.9843 66.753C51.8926 66.3912 52.811 66.0324 53.6537 65.6202C54.2541 65.3267 54.1633 65.0627 53.4266 64.8996C51.7715 64.529 50.0559 64.5201 48.3301 64.6565V64.6535Z" fill="#AE606E"/>
</g>
<defs>
<clipPath id="clip0_67_81">
<rect width="34" height="34" fill="white" transform="translate(33 36)"/>
</clipPath>
</defs>
</svg>
