<svg width="100" height="100" viewBox="0 0 100 100" fill="none" xmlns="http://www.w3.org/2000/svg">
<circle cx="50" cy="50" r="49" fill="white" stroke="#AE606E" stroke-width="2"/>
<path d="M42.3333 48.0834C43.6601 48.0834 44.9571 47.69 46.0603 46.9529C47.1635 46.2157 48.0233 45.168 48.531 43.9423C49.0388 42.7165 49.1716 41.3676 48.9128 40.0664C48.6539 38.7651 48.015 37.5698 47.0768 36.6316C46.1387 35.6934 44.9434 35.0545 43.6421 34.7956C42.3408 34.5368 40.992 34.6697 39.7662 35.1774C38.5404 35.6851 37.4927 36.545 36.7556 37.6481C36.0184 38.7513 35.625 40.0483 35.625 41.3751C35.625 43.1542 36.3318 44.8605 37.5898 46.1186C38.8479 47.3766 40.5542 48.0834 42.3333 48.0834ZM42.3333 38.5001C42.902 38.5001 43.4578 38.6687 43.9306 38.9846C44.4034 39.3005 44.7719 39.7495 44.9895 40.2749C45.2071 40.8002 45.264 41.3783 45.1531 41.936C45.0422 42.4937 44.7683 43.0059 44.3663 43.408C43.9642 43.8101 43.4519 44.0839 42.8942 44.1948C42.3365 44.3058 41.7585 44.2488 41.2331 44.0312C40.7078 43.8136 40.2588 43.4451 39.9429 42.9723C39.6269 42.4996 39.4583 41.9437 39.4583 41.3751C39.4583 40.6126 39.7612 39.8813 40.3004 39.3422C40.8396 38.803 41.5708 38.5001 42.3333 38.5001Z" fill="#AE606E"/>
<path d="M57.6667 53.8333C56.3399 53.8333 55.0429 54.2267 53.9398 54.9638C52.8366 55.7009 51.9768 56.7486 51.469 57.9744C50.9613 59.2002 50.8284 60.549 51.0873 61.8503C51.3461 63.1516 51.985 64.3469 52.9232 65.2851C53.8614 66.2233 55.0567 66.8622 56.358 67.121C57.6593 67.3799 59.0081 67.247 60.2339 66.7393C61.4597 66.2315 62.5074 65.3717 63.2445 64.2685C63.9816 63.1654 64.375 61.8684 64.375 60.5416C64.375 58.7624 63.6683 57.0561 62.4102 55.7981C61.1522 54.54 59.4459 53.8333 57.6667 53.8333ZM57.6667 63.4166C57.0981 63.4166 56.5422 63.248 56.0694 62.9321C55.5967 62.6161 55.2282 62.1671 55.0106 61.6418C54.793 61.1165 54.736 60.5384 54.847 59.9807C54.9579 59.423 55.2317 58.9107 55.6338 58.5087C56.0359 58.1066 56.5481 57.8328 57.1058 57.7218C57.6635 57.6109 58.2416 57.6678 58.7669 57.8854C59.2923 58.103 59.7413 58.4715 60.0572 58.9443C60.3731 59.4171 60.5417 59.973 60.5417 60.5416C60.5417 61.3041 60.2388 62.0353 59.6996 62.5745C59.1605 63.1137 58.4292 63.4166 57.6667 63.4166Z" fill="#AE606E"/>
<path d="M64.835 35.165C64.6765 35.0062 64.4883 34.8802 64.2811 34.7943C64.0739 34.7083 63.8518 34.6641 63.6275 34.6641C63.4031 34.6641 63.181 34.7083 62.9738 34.7943C62.7666 34.8802 62.5784 35.0062 62.42 35.165L35.165 62.42C34.8487 62.7427 34.6701 63.1756 34.6666 63.6275C34.6661 63.9652 34.7659 64.2956 34.9533 64.5766C35.1407 64.8575 35.4073 65.0766 35.7193 65.2059C36.0313 65.3352 36.3747 65.369 36.706 65.303C37.0372 65.237 37.3414 65.0741 37.58 64.835L64.835 37.58C64.9938 37.4215 65.1197 37.2333 65.2057 37.0261C65.2916 36.8189 65.3359 36.5968 65.3359 36.3725C65.3359 36.1482 65.2916 35.926 65.2057 35.7188C65.1197 35.5116 64.9938 35.3234 64.835 35.165Z" fill="#AE606E"/>
</svg>
