<svg width="28" height="32" viewBox="0 0 28 32" fill="none" xmlns="http://www.w3.org/2000/svg">
<path d="M28 13.125H27.9375C25.0625 13.125 22.4375 12.25 20.3125 10.6875V21.875C20.3125 27.5 15.75 32 10.125 32C4.5 32 0 27.5 0 21.875C0 16.25 4.5 11.6875 10.125 11.6875C10.625 11.6875 11.0625 11.75 11.5625 11.8125V17.4375C11.0625 17.25 10.625 17.1875 10.125 17.1875C7.5625 17.1875 5.4375 19.3125 5.4375 21.875C5.4375 24.4375 7.5625 26.5625 10.125 26.5625C12.6875 26.5625 14.8125 24.4375 14.8125 21.875V0H20.3125C20.3125 0.0625 20.3125 0.0625 20.3125 0.125C20.3125 0.5625 20.3125 1 20.4375 1.4375C20.8125 3.5 22.0625 5.3125 23.8125 6.4375C25 7.25 26.4375 7.6875 27.9375 7.6875C27.9375 7.6875 27.9375 7.6875 28 7.6875V13.125Z" fill="white"/>
</svg>
