<svg width="22" height="28" viewBox="0 0 22 28" fill="none" xmlns="http://www.w3.org/2000/svg">
<path d="M21.505 25.1116L17.3764 19.8858C18.7085 17.7315 19.4313 15.0711 19.4286 12.3323C19.4286 9.8932 18.8588 7.50887 17.7914 5.48084C16.724 3.45281 15.2068 1.87215 13.4318 0.938745C11.6567 0.00534335 9.70351 -0.238877 7.81913 0.236967C5.93474 0.712811 4.20382 1.88735 2.84525 3.61205C1.48669 5.33675 0.561489 7.53415 0.186662 9.92638C-0.188166 12.3186 0.00420902 14.7982 0.73946 17.0517C1.47471 19.3051 2.71982 21.2311 4.31732 22.5862C5.91483 23.9413 7.79299 24.6646 9.71429 24.6646C11.8717 24.668 13.9673 23.7504 15.6643 22.0594L19.7807 27.3006C19.8936 27.4451 20.0279 27.5598 20.1759 27.638C20.3238 27.7163 20.4826 27.7566 20.6429 27.7566C20.8032 27.7566 20.9619 27.7163 21.1098 27.638C21.2578 27.5598 21.3921 27.4451 21.505 27.3006C21.6188 27.1573 21.7092 26.9868 21.7708 26.799C21.8324 26.6111 21.8642 26.4096 21.8642 26.2061C21.8642 26.0026 21.8324 25.8011 21.7708 25.6133C21.7092 25.4254 21.6188 25.2549 21.505 25.1116ZM2.42858 12.3323C2.42858 10.503 2.85588 8.71473 3.65644 7.1937C4.457 5.67268 5.59488 4.48718 6.92617 3.78713C8.25746 3.08708 9.72237 2.90392 11.1357 3.2608C12.549 3.61768 13.8471 4.49858 14.8661 5.79211C15.885 7.08564 16.5789 8.73369 16.86 10.5279C17.1411 12.322 16.9969 14.1817 16.4454 15.8718C15.894 17.5619 14.9601 19.0064 13.762 20.0227C12.5639 21.0391 11.1553 21.5815 9.71429 21.5815C7.782 21.5815 5.92885 20.607 4.56251 18.8725C3.19618 17.1379 2.42858 14.7853 2.42858 12.3323Z" fill="#AE606E"/>
</svg>
