<svg width="30" height="37" viewBox="0 0 30 37" fill="none" xmlns="http://www.w3.org/2000/svg">
<path d="M14.5714 32.3723C14.4116 32.3735 14.2532 32.3346 14.1052 32.2579C13.9573 32.1811 13.8227 32.0681 13.7093 31.9252L4.27428 19.9321C3.09079 18.414 2.42694 16.3643 2.42694 14.2284C2.42694 12.0925 3.09079 10.0429 4.27428 8.52472C5.46703 7.01481 7.08272 6.1669 8.76714 6.1669C10.4516 6.1669 12.0672 7.01481 13.26 8.52472L14.5714 10.1896L15.8829 8.52472C17.0756 7.01481 18.6913 6.1669 20.3757 6.1669C22.0601 6.1669 23.6758 7.01481 24.8686 8.52472C26.0521 10.0429 26.7159 12.0925 26.7159 14.2284C26.7159 16.3643 26.0521 18.414 24.8686 19.9321L15.4336 31.9252C15.3201 32.0681 15.1855 32.1811 15.0376 32.2579C14.8896 32.3346 14.7312 32.3735 14.5714 32.3723ZM8.76714 9.24925C8.2531 9.24629 7.74371 9.37285 7.26847 9.62158C6.79324 9.87032 6.3616 10.2363 5.99856 10.6983C5.26521 11.6342 4.85354 12.9006 4.85354 14.2207C4.85354 15.5408 5.26521 16.8072 5.99856 17.7431L14.5714 28.6418L23.1443 17.7431C23.8776 16.8072 24.2893 15.5408 24.2893 14.2207C24.2893 12.9006 23.8776 11.6342 23.1443 10.6983C22.3959 9.80067 21.4053 9.30057 20.3757 9.30057C19.3461 9.30057 18.3555 9.80067 17.6071 10.6983L15.4336 13.4731C15.3207 13.6175 15.1864 13.7322 15.0384 13.8105C14.8904 13.8887 14.7317 13.929 14.5714 13.929C14.4111 13.929 14.2524 13.8887 14.1044 13.8105C13.9565 13.7322 13.8222 13.6175 13.7093 13.4731L11.5357 10.6983C11.1727 10.2363 10.741 9.87032 10.2658 9.62158C9.79056 9.37285 9.28117 9.24629 8.76714 9.24925Z" fill="#AE606E"/>
</svg>
