<svg width="30" height="37" viewBox="0 0 30 37" fill="none" xmlns="http://www.w3.org/2000/svg">
<path d="M14.5714 16.9569C15.5321 16.9569 16.4712 16.5953 17.2699 15.9177C18.0687 15.2402 18.6912 14.2771 19.0588 13.1504C19.4265 12.0237 19.5227 10.7839 19.3352 9.58779C19.1478 8.39168 18.6852 7.29298 18.0059 6.43063C17.3267 5.56828 16.4612 4.98101 15.519 4.74309C14.5768 4.50516 13.6002 4.62727 12.7127 5.09398C11.8251 5.56068 11.0666 6.35101 10.5329 7.36502C9.99915 8.37904 9.71428 9.5712 9.71428 10.7908C9.71428 12.4261 10.226 13.9945 11.1369 15.1509C12.0478 16.3072 13.2832 16.9569 14.5714 16.9569ZM14.5714 7.70768C15.0517 7.70768 15.5213 7.8885 15.9207 8.22727C16.32 8.56604 16.6313 9.04755 16.8151 9.61091C16.9989 10.1743 17.047 10.7942 16.9533 11.3922C16.8596 11.9903 16.6283 12.5396 16.2887 12.9708C15.949 13.402 15.5163 13.6956 15.0452 13.8146C14.5741 13.9335 14.0858 13.8725 13.642 13.6391C13.1983 13.4058 12.819 13.0106 12.5521 12.5036C12.2853 11.9966 12.1429 11.4005 12.1429 10.7908C12.1429 9.97307 12.3987 9.18888 12.8542 8.61069C13.3096 8.0325 13.9273 7.70768 14.5714 7.70768Z" fill="#AE606E"/>
<path d="M14.5714 20.04C12.3171 20.04 10.1551 21.1769 8.56102 23.2005C6.96696 25.2242 6.07143 27.9688 6.07143 30.8307C6.07143 31.2396 6.19936 31.6317 6.42708 31.9208C6.65481 32.2099 6.96366 32.3723 7.28571 32.3723C7.60776 32.3723 7.91662 32.2099 8.14434 31.9208C8.37206 31.6317 8.5 31.2396 8.5 30.8307C8.5 28.7865 9.13966 26.826 10.2783 25.3806C11.4169 23.9351 12.9612 23.1231 14.5714 23.1231C16.1817 23.1231 17.726 23.9351 18.8646 25.3806C20.0032 26.826 20.6429 28.7865 20.6429 30.8307C20.6429 31.2396 20.7708 31.6317 20.9985 31.9208C21.2262 32.2099 21.5351 32.3723 21.8571 32.3723C22.1792 32.3723 22.488 32.2099 22.7158 31.9208C22.9435 31.6317 23.0714 31.2396 23.0714 30.8307C23.0714 27.9688 22.1759 25.2242 20.5818 23.2005C18.9878 21.1769 16.8258 20.04 14.5714 20.04Z" fill="#AE606E"/>
</svg>
