<svg width="44" height="44" viewBox="0 0 44 44" fill="none" xmlns="http://www.w3.org/2000/svg">
<path d="M21.57 19.7725C22.9921 19.7725 24.3822 19.3508 25.5646 18.5608C26.7469 17.7707 27.6685 16.6478 28.2127 15.334C28.7569 14.0202 28.8993 12.5745 28.6219 11.1798C28.3444 9.78507 27.6596 8.50393 26.6541 7.49839C25.6486 6.49285 24.3674 5.80807 22.9727 5.53064C21.578 5.25322 20.1323 5.3956 18.8185 5.9398C17.5047 6.48399 16.3818 7.40555 15.5917 8.58794C14.8017 9.77033 14.38 11.1604 14.38 12.5825C14.38 14.4894 15.1375 16.3182 16.4859 17.6666C17.8343 19.015 19.6631 19.7725 21.57 19.7725Z" fill="#AE606E"/>
<path d="M32.355 37.7475C32.8317 37.7475 33.2889 37.5581 33.626 37.221C33.9631 36.8839 34.1525 36.4267 34.1525 35.95C34.1525 32.6129 32.8268 29.4125 30.4672 27.0528C28.1075 24.6931 24.9071 23.3675 21.57 23.3675C18.2329 23.3675 15.0325 24.6931 12.6728 27.0528C10.3131 29.4125 8.98749 32.6129 8.98749 35.95C8.98749 36.4267 9.17687 36.8839 9.51396 37.221C9.85106 37.5581 10.3083 37.7475 10.785 37.7475H32.355Z" fill="#AE606E"/>
</svg>
