<svg width="34" height="34" viewBox="0 0 34 34" fill="none" xmlns="http://www.w3.org/2000/svg">
<path d="M21.7442 34H12.2558C3.66884 34 0 30.3312 0 21.7442V12.2558C0 3.66884 3.66884 0 12.2558 0H21.7442C30.3312 0 34 3.66884 34 12.2558V21.7442C34 30.3312 30.3312 34 21.7442 34ZM12.2558 2.37209C4.96558 2.37209 2.37209 4.96558 2.37209 12.2558V21.7442C2.37209 29.0344 4.96558 31.6279 12.2558 31.6279H21.7442C29.0344 31.6279 31.6279 29.0344 31.6279 21.7442V12.2558C31.6279 4.96558 29.0344 2.37209 21.7442 2.37209H12.2558Z" fill="white"/>
<path d="M17 23.7209C13.2995 23.7209 10.2791 20.7004 10.2791 17C10.2791 13.2995 13.2995 10.2791 17 10.2791C20.7005 10.2791 23.7209 13.2995 23.7209 17C23.7209 20.7004 20.7005 23.7209 17 23.7209ZM17 12.6511C14.5963 12.6511 12.6512 14.5963 12.6512 17C12.6512 19.4037 14.5963 21.3488 17 21.3488C19.4037 21.3488 21.3488 19.4037 21.3488 17C21.3488 14.5963 19.4037 12.6511 17 12.6511Z" fill="white"/>
<path d="M24.907 9.88342C24.7014 9.88342 24.4958 9.83598 24.306 9.75691C24.1163 9.67784 23.9423 9.56714 23.7842 9.42482C23.6419 9.26668 23.5153 9.09272 23.4363 8.90296C23.3572 8.71319 23.3256 8.50761 23.3256 8.30203C23.3256 8.09644 23.3572 7.89086 23.4363 7.7011C23.5312 7.49552 23.6419 7.33738 23.7842 7.17924C23.8633 7.11598 23.9423 7.03691 24.0214 6.98947C24.1163 6.92621 24.2112 6.87877 24.306 6.84714C24.4009 6.7997 24.4958 6.76807 24.6065 6.75226C25.1126 6.64156 25.6502 6.81551 26.0298 7.17924C26.1721 7.33738 26.2828 7.49552 26.3619 7.7011C26.4409 7.89086 26.4884 8.09644 26.4884 8.30203C26.4884 8.50761 26.4409 8.71319 26.3619 8.90296C26.2828 9.09272 26.1721 9.26668 26.0298 9.42482C25.8716 9.56714 25.6977 9.67784 25.5079 9.75691C25.3181 9.83598 25.1126 9.88342 24.907 9.88342Z" fill="white"/>
</svg>
