<svg width="44" height="44" viewBox="0 0 44 44" fill="none" xmlns="http://www.w3.org/2000/svg">
<path d="M37.2262 34.6738L31.1147 28.5802C33.0865 26.0682 34.1565 22.966 34.1525 19.7725C34.1525 16.9284 33.3091 14.1482 31.729 11.7834C30.1489 9.41861 27.9031 7.57549 25.2755 6.48711C22.6479 5.39872 19.7565 5.11395 16.9671 5.6688C14.1776 6.22366 11.6154 7.59322 9.6043 9.6043C7.59322 11.6154 6.22366 14.1776 5.6688 16.9671C5.11395 19.7565 5.39872 22.6479 6.48711 25.2755C7.57549 27.9031 9.41861 30.1489 11.7834 31.729C14.1482 33.3091 16.9284 34.1525 19.7725 34.1525C22.966 34.1565 26.0682 33.0865 28.5802 31.1147L34.6738 37.2262C34.8409 37.3947 35.0397 37.5284 35.2587 37.6197C35.4778 37.7109 35.7127 37.7579 35.95 37.7579C36.1873 37.7579 36.4222 37.7109 36.6413 37.6197C36.8603 37.5284 37.0591 37.3947 37.2262 37.2262C37.3947 37.0591 37.5284 36.8603 37.6197 36.6413C37.7109 36.4222 37.7579 36.1873 37.7579 35.95C37.7579 35.7127 37.7109 35.4778 37.6197 35.2587C37.5284 35.0397 37.3947 34.8409 37.2262 34.6738ZM8.98749 19.7725C8.98749 17.6394 9.62002 15.5543 10.8051 13.7807C11.9902 12.0071 13.6746 10.6247 15.6453 9.80845C17.616 8.99216 19.7845 8.77858 21.8765 9.19472C23.9686 9.61087 25.8903 10.638 27.3986 12.1463C28.9069 13.6547 29.9341 15.5764 30.3503 17.6684C30.7664 19.7605 30.5528 21.929 29.7365 23.8997C28.9202 25.8704 27.5379 27.5548 25.7643 28.7399C23.9907 29.925 21.9056 30.5575 19.7725 30.5575C16.9121 30.5575 14.1689 29.4212 12.1463 27.3986C10.1238 25.3761 8.98749 22.6329 8.98749 19.7725Z" fill="#AE606E"/>
</svg>
