<svg width="34" height="34" viewBox="0 0 34 34" fill="none" xmlns="http://www.w3.org/2000/svg">
<path d="M18.4167 31.1666H12.75C12.3743 31.1666 12.014 31.0173 11.7483 30.7517C11.4826 30.486 11.3333 30.1257 11.3333 29.7499V20.9666H8.50001C8.12429 20.9666 7.76395 20.8173 7.49828 20.5517C7.2326 20.286 7.08334 19.9257 7.08334 19.5499V14.4499C7.08334 14.0742 7.2326 13.7139 7.49828 13.4482C7.76395 13.1825 8.12429 13.0333 8.50001 13.0333H11.3333V10.6249C11.4326 8.46644 12.3826 6.43506 13.9754 4.97497C15.5682 3.51488 17.6744 2.74485 19.8333 2.83327H24.0833C24.4591 2.83327 24.8194 2.98252 25.0851 3.2482C25.3508 3.51388 25.5 3.87421 25.5 4.24994V9.34994C25.5 9.72566 25.3508 10.086 25.0851 10.3517C24.8194 10.6173 24.4591 10.7666 24.0833 10.7666H19.8333V13.0333H24.0833C24.3021 13.0316 24.5182 13.0806 24.7149 13.1765C24.9115 13.2723 25.0832 13.4124 25.2167 13.5858C25.3486 13.7617 25.4378 13.966 25.4772 14.1823C25.5165 14.3987 25.5049 14.6213 25.4433 14.8324L24.0267 19.9324C23.941 20.2389 23.7546 20.5075 23.4976 20.6951C23.2406 20.8827 22.928 20.9784 22.61 20.9666H19.8333V29.7499C19.8333 30.1257 19.6841 30.486 19.4184 30.7517C19.1527 31.0173 18.7924 31.1666 18.4167 31.1666ZM14.1667 28.3333H17V19.5499C17 19.1742 17.1493 18.8139 17.4149 18.5482C17.6806 18.2825 18.041 18.1333 18.4167 18.1333H21.59L22.2133 15.8666H18.4167C18.041 15.8666 17.6806 15.7173 17.4149 15.4517C17.1493 15.186 17 14.8257 17 14.4499V10.6249C17.0364 9.89831 17.3509 9.21352 17.8783 8.71244C18.4058 8.21135 19.1058 7.93236 19.8333 7.93327H22.6667V5.6666H19.8333C18.4263 5.58088 17.0423 6.0534 15.9814 6.98164C14.9205 7.90989 14.2685 9.21899 14.1667 10.6249V14.4499C14.1667 14.8257 14.0174 15.186 13.7517 15.4517C13.4861 15.7173 13.1257 15.8666 12.75 15.8666H9.91668V18.1333H12.75C13.1257 18.1333 13.4861 18.2825 13.7517 18.5482C14.0174 18.8139 14.1667 19.1742 14.1667 19.5499V28.3333Z" fill="white"/>
</svg>
