<svg width="44" height="44" viewBox="0 0 44 44" fill="none" xmlns="http://www.w3.org/2000/svg">
<path d="M19.413 23.745L22.4508 22.5227L23.727 19.3951L20.6892 20.6174L19.413 23.745Z" fill="#AE606E"/>
<path d="M21.57 3.595C18.0149 3.595 14.5396 4.64922 11.5836 6.62433C8.62766 8.59945 6.32376 11.4068 4.96327 14.6913C3.60279 17.9758 3.24682 21.5899 3.94039 25.0767C4.63396 28.5636 6.34592 31.7664 8.85977 34.2802C11.3736 36.7941 14.5765 38.506 18.0633 39.1996C21.5501 39.8932 25.1642 39.5372 28.4487 38.1767C31.7332 36.8163 34.5406 34.5123 36.5157 31.5564C38.4908 28.6004 39.545 25.1251 39.545 21.57C39.545 19.2095 39.0801 16.8721 38.1767 14.6913C37.2734 12.5104 35.9494 10.5289 34.2803 8.85976C32.6111 7.19062 30.6296 5.86659 28.4487 4.96327C26.2679 4.05994 23.9305 3.595 21.57 3.595ZM28.6342 16.9325L25.4886 24.5898C25.3982 24.8123 25.2641 25.0144 25.0943 25.1842C24.9245 25.354 24.7224 25.488 24.4999 25.5784L16.9325 28.6342C16.6928 28.7298 16.4353 28.7727 16.1775 28.76C15.9384 28.7567 15.7024 28.7057 15.4832 28.61C15.2641 28.5143 15.0663 28.3759 14.9013 28.2028H14.8114C14.6018 27.9594 14.4612 27.6643 14.4043 27.3482C14.3474 27.0321 14.3763 26.7065 14.4879 26.4053L17.6335 18.7479C17.7239 18.5255 17.8579 18.3234 18.0277 18.1536C18.1975 17.9838 18.3996 17.8497 18.6221 17.7593L26.1896 14.7036C26.5261 14.5708 26.8949 14.5427 27.2476 14.6228C27.6004 14.703 27.9208 14.8878 28.1668 15.1529C28.3978 15.3799 28.5632 15.6651 28.6454 15.9784C28.7277 16.2916 28.7238 16.6212 28.6342 16.9325Z" fill="#AE606E"/>
</svg>
