<svg width="34" height="34" viewBox="0 0 34 34" fill="none" xmlns="http://www.w3.org/2000/svg">
<path d="M12.0558 28.3333H11.9425C9.65935 28.3133 7.40921 27.7859 5.35501 26.7892C4.97714 26.6117 4.66602 26.3179 4.46719 25.9508C4.26835 25.5837 4.19224 25.1626 4.25001 24.7492C4.31283 24.3329 4.50556 23.9471 4.80067 23.6469C5.09579 23.3467 5.47821 23.1474 5.89334 23.0775C7.16637 22.9076 8.39105 22.4785 9.49167 21.8167C7.58082 20.3227 6.10974 18.3396 5.23433 16.0775C4.35893 13.8154 4.11181 11.3586 4.51917 8.96749C4.57441 8.58875 4.73729 8.23385 4.98844 7.94502C5.23959 7.6562 5.56844 7.44561 5.93584 7.33832C6.29329 7.22606 6.67583 7.22127 7.03598 7.32453C7.39613 7.42779 7.71801 7.63455 7.96167 7.91916C8.78901 9.00401 9.82869 9.90895 11.0173 10.5788C12.2059 11.2486 13.5185 11.6692 14.875 11.815C14.9398 10.1459 15.6571 8.569 16.8725 7.42332C17.4794 6.84217 18.1959 6.38761 18.9802 6.08614C19.7646 5.78467 20.6011 5.64231 21.441 5.66737C22.2809 5.69242 23.1074 5.88438 23.8724 6.23206C24.6374 6.57974 25.3255 7.0762 25.8967 7.69249C26.0455 7.82405 26.2304 7.9079 26.4274 7.93315C26.6244 7.95841 26.8245 7.92392 27.0017 7.83416C27.3395 7.67485 27.7156 7.61488 28.0861 7.66124C28.4567 7.70761 28.8065 7.8584 29.0946 8.09602C29.3827 8.33364 29.5973 8.64829 29.7133 9.00327C29.8294 9.35824 29.8421 9.7389 29.75 10.1008C29.4233 11.4468 28.8042 12.7044 27.9367 13.7842C27.7455 17.8142 25.9687 21.6053 22.9938 24.3307C20.019 27.0561 16.0872 28.4949 12.0558 28.3333ZM12.0558 25.5H12.1692C13.8163 25.5566 15.4583 25.2858 16.9999 24.7031C18.5416 24.1204 19.9522 23.2375 21.15 22.1055C22.3479 20.9735 23.3091 19.615 23.978 18.1088C24.6469 16.6025 25.0101 14.9785 25.0467 13.3308C25.0701 12.8793 25.2563 12.4515 25.5708 12.1267C25.9164 11.6893 26.211 11.214 26.4492 10.71C25.9388 10.711 25.434 10.6042 24.9677 10.3967C24.5015 10.1892 24.0842 9.88562 23.7433 9.50582C23.4155 9.18077 23.0261 8.92439 22.598 8.75168C22.1699 8.57897 21.7116 8.4934 21.25 8.49999C20.7838 8.48793 20.3198 8.56808 19.8846 8.73583C19.4494 8.90357 19.0517 9.15562 18.7142 9.47749C18.2588 9.90957 17.925 10.4537 17.7459 11.0553C17.5669 11.657 17.5491 12.2951 17.6942 12.9058L18.0625 14.5208L16.405 14.6342C14.7066 14.7727 12.9983 14.5403 11.3985 13.9532C9.79876 13.3662 8.34571 12.4384 7.14001 11.2342C7.0883 13.0991 7.55481 14.9417 8.48767 16.5574C9.42054 18.173 10.7832 19.4983 12.4242 20.3858L13.77 21.1508L12.8775 22.4258C11.9123 23.6916 10.5899 24.6391 9.08084 25.1458C10.0489 25.3884 11.0437 25.5075 12.0417 25.5H12.0558Z" fill="white"/>
</svg>
