<svg width="29" height="29" viewBox="0 0 29 29" fill="none" xmlns="http://www.w3.org/2000/svg">
<path d="M14.4971 17.4185C11.2043 17.4185 8.51445 15.0861 8.51445 12.2009C8.51445 9.31581 11.2043 6.99689 14.4971 6.99689C17.7898 6.99689 20.4797 9.32929 20.4797 12.2144C20.4797 15.0996 17.7898 17.4185 14.4971 17.4185ZM14.4971 9.0192C12.4874 9.0192 10.8333 10.4483 10.8333 12.2144C10.8333 13.9806 12.472 15.4097 14.4971 15.4097C16.5222 15.4097 18.1608 13.9806 18.1608 12.2144C18.1608 10.4483 16.5067 9.0192 14.4971 9.0192Z" fill="#AE606E"/>
<path d="M14.4952 29C12.2073 29 9.90394 28.245 8.11071 26.7485C3.55035 22.9196 -1.48924 16.8122 0.412197 9.54533C2.12813 2.95258 8.72906 0 14.4952 0H14.5107C20.2768 0 26.8778 2.95258 28.5937 9.55881C30.4797 16.8257 25.4401 22.9196 20.8797 26.7485C19.0865 28.245 16.7831 29 14.4952 29ZM14.4952 2.02232C9.99669 2.02232 4.21508 4.11204 2.68465 9.99024C1.01509 16.3403 5.59091 21.814 9.73389 25.2789C12.4083 27.5305 16.5976 27.5305 19.272 25.2789C23.3995 21.814 27.9754 16.3403 26.3367 9.99024C24.7908 4.11204 18.9938 2.02232 14.4952 2.02232Z" fill="#AE606E"/>
</svg>
