<svg width="44" height="44" viewBox="0 0 44 44" fill="none" xmlns="http://www.w3.org/2000/svg">
<path d="M21.57 37.7475C21.3334 37.7488 21.0989 37.7035 20.8799 37.6141C20.6609 37.5246 20.4617 37.3928 20.2938 37.2262L6.32719 23.2417C4.57528 21.4714 3.59259 19.0815 3.59259 16.5909C3.59259 14.1003 4.57528 11.7104 6.32719 9.94015C8.09281 8.17952 10.4845 7.19083 12.9779 7.19083C15.4714 7.19083 17.8631 8.17952 19.6287 9.94015L21.57 11.8815L23.5113 9.94015C25.2769 8.17952 27.6686 7.19083 30.162 7.19083C32.6555 7.19083 35.0472 8.17952 36.8128 9.94015C38.5647 11.7104 39.5474 14.1003 39.5474 16.5909C39.5474 19.0815 38.5647 21.4714 36.8128 23.2417L22.8462 37.2262C22.6783 37.3928 22.4791 37.5246 22.2601 37.6141C22.0411 37.7035 21.8066 37.7488 21.57 37.7475Z" fill="#AE606E"/>
</svg>
